# xmcd
#
# Track frame offsets: 
#        182
#        29700
#        46760
#        69822
#        94275
#        120782
#        145152
#        169662
#        202902
#        224330
#        247812
#
# Disc length: 3559 seconds
#
# Revision: 3
# Processed by: cddbd v1.5.2PL0 Copyright (c) Steve Scherf et al.
# Submitted via: ExactAudioCopy v0.95b4
#
DISCID=8d0de50b
DTITLE=Charles Brown - These Blues
DYEAR=1994
DGENRE=Blues
TTITLE0=These Blues
TTITLE1=Honey
TTITLE2=May I Never Love Again
TTITLE3=I Got It Bad (And That Ain't Good)
TTITLE4=Is You Is, Or Is You Ain't (Ma' Baby)
TTITLE5=A Hundred Years From Today
TTITLE6=Save Your Love For Me
TTITLE7=I Did My Best For You
TTITLE8=A Sunday Kind Of Love
TTITLE9=Tomorrow
TTITLE10=Amazing Grace
EXTD=
EXTT0=
EXTT1=
EXTT2=
EXTT3=
EXTT4=
EXTT5=
EXTT6=
EXTT7=
EXTT8=
EXTT9=
EXTT10=
PLAYORDER=
